<?xml version="1.0" encoding="utf-8"?>
<!-- Generator: Adobe Illustrator 19.0.0, SVG Export Plug-In . SVG Version: 6.00 Build 0)  -->
<svg version="1.1" id="Layer_1" xmlns="http://www.w3.org/2000/svg" xmlns:xlink="http://www.w3.org/1999/xlink" x="0px" y="0px"
	 viewBox="269 299.8 60 60" style="enable-background:new 269 299.8 60 60;" xml:space="preserve">
<style type="text/css">
	.st0{fill:#409EFF;}
</style>
<g id="turquoise_blue">
</g>
<path class="st0" d="M306.4,319.8c-3.4,0-10.3,0-13.5,0c-1.1,5.7-4.9,11.6-8.8,15.3c-0.6-1.7-0.9-3.5-0.9-5.3
	c0-9,7.4-16.4,16.4-16.4c6.8,0,13,4.3,15.4,10.7l4-1.5c-3-8-10.7-13.5-19.3-13.5c-11.4,0-20.6,9.3-20.6,20.6c0,2.9,0.6,5.6,1.7,8.1
	c-0.6,0.4-1.1,0.7-1.7,1l1.9,3.7c4.4-2.3,8.5-6.2,11.5-10.8h14.6c1.7,2.7,3.9,5.2,6.3,7.3c-3,4.4-8.1,7.2-13.6,7.2
	c-4.9,0-9.2-2.1-12.2-5.5c-1.1,0.9-2.2,1.8-3.4,2.5c3.8,4.4,9.4,7.2,15.6,7.2c8.7,0,16.3-5.7,18.9-12.5
	C312.1,333.4,307.9,326.6,306.4,319.8z M294.7,327.6c0.5-1.2,1-2.3,1.4-3.5h7.1c0.4,1.2,0.9,2.4,1.4,3.5H294.7z"/>
</svg>
